<?xml version="1.0" encoding="utf-8"?>
<!-- Generator: Adobe Illustrator 16.0.0, SVG Export Plug-In . SVG Version: 6.00 Build 0)  -->
<!DOCTYPE svg PUBLIC "-//W3C//DTD SVG 1.0//EN" "http://www.w3.org/TR/2001/REC-SVG-20010904/DTD/svg10.dtd">
<svg version="1.0" id="Layer_1" xmlns="http://www.w3.org/2000/svg" xmlns:xlink="http://www.w3.org/1999/xlink" x="0px" y="0px"
	 width="186px" height="31px" viewBox="0 0 186 31" enable-background="new 0 0 186 31" xml:space="preserve">
<g>
	<path fill="#FFFFFF" d="M49.459,19.961c-0.977-0.977-1.462-2.293-1.462-3.921c0-1.633,0.517-2.919,1.56-3.88
		c1.044-0.94,2.294-1.431,3.761-1.431c1.824,0,3.368,0.765,4.608,2.299l2.423-2.753C58.396,8.095,56.005,7,53.137,7
		c-2.572,0-4.737,0.883-6.509,2.609c-1.777,1.726-2.655,3.89-2.655,6.478c0,2.604,0.862,4.753,2.604,6.447
		c1.746,1.693,3.957,2.541,6.659,2.541c2.686,0,5.031-1.109,7.015-3.357l-2.505-2.572c-1.219,1.535-2.785,2.283-4.706,2.283
		C51.64,21.428,50.436,20.938,49.459,19.961z"/>
	<path fill="#FFFFFF" d="M82.371,16.04c0-2.573-0.894-4.722-2.656-6.447C77.943,7.868,75.764,7,73.191,7
		c-2.588,0-4.768,0.868-6.53,2.593c-1.756,1.726-2.635,3.875-2.635,6.447c0,2.567,0.878,4.7,2.635,6.427
		c1.762,1.725,3.941,2.588,6.53,2.588c2.572,0,4.752-0.863,6.524-2.588C81.477,20.74,82.371,18.607,82.371,16.04z M76.9,20.028
		c-1.007,1.089-2.227,1.627-3.693,1.627c-1.467,0-2.687-0.538-3.694-1.627c-1.012-1.09-1.498-2.429-1.498-3.988
		c0-1.565,0.485-2.883,1.498-3.993c1.007-1.09,2.227-1.643,3.694-1.643c1.466,0,2.686,0.553,3.693,1.643
		c0.992,1.11,1.498,2.428,1.498,3.993C78.398,17.6,77.892,18.938,76.9,20.028z"/>
	<path fill="#FFFFFF" d="M93.859,15.92h-2.846v-5.175h2.915c1.25,0,2.127,0.181,2.635,0.537c0.49,0.361,0.748,0.997,0.748,1.937
		c0,0.945-0.242,1.627-0.732,2.051C96.092,15.714,95.192,15.92,93.859,15.92z M99.542,8.777c-1.157-0.909-3.094-1.385-5.812-1.385
		h-6.627v17.487h3.91v-5.584h2.702l3.875,5.584h4.799l-4.428-6.252c2.217-0.816,3.322-2.624,3.322-5.424
		C101.283,11.168,100.699,9.686,99.542,8.777z"/>
	<polygon fill="#FFFFFF" points="118.418,10.781 118.418,7.392 104.615,7.392 104.615,10.781 109.564,10.781 109.564,24.879 
		113.475,24.879 113.475,10.781 	"/>
	<path fill="#FFFFFF" d="M132.304,17.682h-4.38l2.195-5.078L132.304,17.682z M139.546,24.879l-7.552-17.487h-3.777l-7.552,17.487
		h4.147l1.627-3.776h7.326l1.627,3.776H139.546z"/>
	<polygon fill="#FFFFFF" points="155.168,18.658 146.592,7.392 142.945,7.392 142.945,24.879 146.851,24.879 146.851,13.922 
		155.168,24.879 159.078,24.879 159.078,7.392 155.168,7.392 	"/>
	<path fill="#FFFFFF" d="M174.39,17.682h-4.376l2.195-5.078L174.39,17.682z M181.632,24.879L174.08,7.392h-3.777l-7.552,17.487
		h4.153l1.627-3.776h7.325l1.628,3.776H181.632z"/>
</g>
<path fill="#FCFCFC" d="M3.368,0v31h30.995V0H3.368z M31.238,27.875H6.493V3.125h24.745V27.875z"/>
<path fill="#FCFCFC" d="M8.575,5.212v20.575H29.15V5.212H8.575z M26.025,22.662H11.701V8.337h14.325V22.662z"/>
<path fill="#FCFCFC" d="M13.788,10.419V20.58h10.156V10.419H13.788z M20.818,17.455h-3.905v-3.91h3.905V17.455z"/>
</svg>
